<svg width="27" height="21" viewBox="0 0 27 21" fill="none" xmlns="http://www.w3.org/2000/svg">
<path d="M24.5 2.53125H21.875V1.6875C21.875 1.23995 21.6906 0.810725 21.3624 0.494257C21.0342 0.17779 20.5891 0 20.125 0H6.125C5.66087 0 5.21575 0.17779 4.88756 0.494257C4.55937 0.810725 4.375 1.23995 4.375 1.6875V2.53125H1.75C1.28587 2.53125 0.840752 2.70904 0.512563 3.02551C0.184374 3.34198 0 3.7712 0 4.21875V5.90625C0 7.02513 0.460936 8.09819 1.28141 8.88936C1.68766 9.2811 2.16996 9.59186 2.70076 9.80387C3.23156 10.0159 3.80047 10.125 4.375 10.125H4.77422C5.28965 11.7001 6.2724 13.095 7.60102 14.1374C8.92964 15.1797 10.5459 15.8239 12.25 15.9901V18.5625H9.625C9.39294 18.5625 9.17038 18.6514 9.00628 18.8096C8.84219 18.9679 8.75 19.1825 8.75 19.4062C8.75 19.63 8.84219 19.8446 9.00628 20.0029C9.17038 20.1611 9.39294 20.25 9.625 20.25H16.625C16.8571 20.25 17.0796 20.1611 17.2437 20.0029C17.4078 19.8446 17.5 19.63 17.5 19.4062C17.5 19.1825 17.4078 18.9679 17.2437 18.8096C17.0796 18.6514 16.8571 18.5625 16.625 18.5625H14V15.987C17.4934 15.6463 20.3919 13.2827 21.4463 10.125H21.875C23.0353 10.125 24.1481 9.68053 24.9686 8.88936C25.7891 8.09819 26.25 7.02513 26.25 5.90625V4.21875C26.25 3.7712 26.0656 3.34198 25.7374 3.02551C25.4092 2.70904 24.9641 2.53125 24.5 2.53125ZM4.375 8.4375C3.67881 8.4375 3.01113 8.17082 2.51884 7.69611C2.02656 7.22141 1.75 6.57758 1.75 5.90625V4.21875H4.375V7.59375C4.375 7.875 4.38922 8.15625 4.41766 8.4375H4.375ZM20.125 7.49883C20.125 11.2451 17.0089 14.3163 13.1786 14.3438H13.125C11.2685 14.3438 9.48801 13.6326 8.17525 12.3667C6.8625 11.1009 6.125 9.38396 6.125 7.59375V1.6875H20.125V7.49883ZM24.5 5.90625C24.5 6.57758 24.2234 7.22141 23.7312 7.69611C23.2389 8.17082 22.5712 8.4375 21.875 8.4375H21.8203C21.8562 8.1258 21.8745 7.81244 21.875 7.49883V4.21875H24.5V5.90625Z" fill="#202244"/>
</svg>
