<svg width="20" height="21" viewBox="0 0 20 21" fill="none" xmlns="http://www.w3.org/2000/svg">
<path fill-rule="evenodd" clip-rule="evenodd" d="M5.87523 3.04192C6.9692 1.94796 8.45293 1.33337 10 1.33337C11.5471 1.33337 13.0309 1.94796 14.1248 3.04192C15.2188 4.13588 15.8334 5.61961 15.8334 7.16671C15.8334 9.96059 16.4309 11.6956 16.9816 12.7052C17.2581 13.2121 17.5273 13.5446 17.7144 13.742C17.8081 13.841 17.8817 13.9066 17.9261 13.9435C17.9483 13.962 17.9632 13.9733 17.9696 13.9781C17.9706 13.9789 17.9714 13.9794 17.9719 13.9799C18.2707 14.1851 18.4029 14.5605 18.2976 14.9082C18.1912 15.2597 17.8672 15.5 17.5 15.5H2.50002C2.1328 15.5 1.80886 15.2597 1.70245 14.9082C1.59716 14.5605 1.72936 14.1851 2.0281 13.9799C2.02868 13.9795 2.02948 13.9789 2.03048 13.9781C2.0369 13.9733 2.05177 13.962 2.07396 13.9435C2.11831 13.9066 2.19196 13.841 2.28569 13.742C2.47271 13.5446 2.74195 13.2121 3.01844 12.7052C3.56913 11.6956 4.16669 9.96059 4.16669 7.16671C4.16669 5.61961 4.78127 4.13588 5.87523 3.04192ZM2.03652 13.9742C2.03659 13.9741 2.03665 13.9741 2.03672 13.974C2.03672 13.974 2.03671 13.974 2.03671 13.974L2.03652 13.9742ZM4.29113 13.8334H15.7089C15.6455 13.7295 15.5819 13.6195 15.5184 13.5033C14.8191 12.2212 14.1667 10.2062 14.1667 7.16671C14.1667 6.06164 13.7277 5.00183 12.9463 4.22043C12.1649 3.43903 11.1051 3.00004 10 3.00004C8.89496 3.00004 7.83515 3.43903 7.05375 4.22043C6.27234 5.00183 5.83336 6.06164 5.83336 7.16671C5.83336 10.2062 5.18091 12.2212 4.4816 13.5033C4.41819 13.6195 4.35453 13.7295 4.29113 13.8334Z" fill="#F19A1A"/>
<path fill-rule="evenodd" clip-rule="evenodd" d="M8.14024 17.2791C8.53835 17.0482 9.04828 17.1837 9.27922 17.5818C9.35247 17.7081 9.45762 17.8129 9.58412 17.8858C9.71063 17.9587 9.85406 17.997 10.0001 17.997C10.146 17.997 10.2895 17.9587 10.416 17.8858C10.5425 17.8129 10.6476 17.7081 10.7209 17.5818C10.9518 17.1837 11.4618 17.0482 11.8599 17.2791C12.258 17.5101 12.3935 18.02 12.1626 18.4181C11.9428 18.797 11.6274 19.1114 11.2478 19.33C10.8683 19.5486 10.438 19.6637 10.0001 19.6637C9.56208 19.6637 9.13179 19.5486 8.75227 19.33C8.37275 19.1114 8.05731 18.797 7.83755 18.4181C7.60662 18.02 7.74214 17.5101 8.14024 17.2791Z" fill="#F19A1A"/>
<g filter="url(#filter0_d_12_1589)">
<circle cx="5.5" cy="4.5" r="3.5" fill="#FF0000"/>
</g>
<defs>
<filter id="filter0_d_12_1589" x="0" y="1" width="11" height="11" filterUnits="userSpaceOnUse" color-interpolation-filters="sRGB">
<feFlood flood-opacity="0" result="BackgroundImageFix"/>
<feColorMatrix in="SourceAlpha" type="matrix" values="0 0 0 0 0 0 0 0 0 0 0 0 0 0 0 0 0 0 127 0" result="hardAlpha"/>
<feOffset dy="2"/>
<feGaussianBlur stdDeviation="1"/>
<feColorMatrix type="matrix" values="0 0 0 0 0 0 0 0 0 0 0 0 0 0 0 0 0 0 0.25 0"/>
<feBlend mode="normal" in2="BackgroundImageFix" result="effect1_dropShadow_12_1589"/>
<feBlend mode="normal" in="SourceGraphic" in2="effect1_dropShadow_12_1589" result="shape"/>
</filter>
</defs>
</svg>
