<svg width="16" height="20" viewBox="0 0 16 20" fill="none" xmlns="http://www.w3.org/2000/svg">
<path fill-rule="evenodd" clip-rule="evenodd" d="M11.527 0H4.629C1.785 0 0 1.984 0 5.172V18.324C0 19.25 0.734 20 1.637 20C1.91 20 2.18 19.93 2.422 19.797L8.035 16.68L14.57 19.816C14.746 19.891 14.945 19.891 15.125 19.816C15.3 19.742 15.441 19.598 15.515 19.418C15.625 19.082 15.492 18.715 15.199 18.535L8.707 15.43C8.28 15.188 7.77 15.188 7.344 15.43L1.723 18.535C1.66 18.57 1.582 18.57 1.516 18.535C1.457 18.496 1.422 18.426 1.422 18.348V5.172C1.43 2.816 2.586 1.473 4.655 1.473H11.55C14.207 1.473 14.593 3.68 14.593 5.004V5.605H7.129C6.941 5.613 6.762 5.695 6.629 5.836C6.5 5.98 6.434 6.168 6.441 6.363C6.448 6.75 6.754 7.059 7.129 7.07H14.57V14.793C14.57 15.195 14.89 15.523 15.285 15.523C15.675 15.523 15.996 15.203 16 14.801V5.004C16 1.914 14.293 0 11.527 0Z" fill="#202244"/>
</svg>
