<svg width="19" height="20" viewBox="0 0 19 20" fill="none" xmlns="http://www.w3.org/2000/svg">
<path fill-rule="evenodd" clip-rule="evenodd" d="M8.23298 5.043C8.59998 5.082 8.87698 5.398 8.87698 5.77C8.87698 6.145 8.59998 6.457 8.23298 6.5H5.49098C5.12298 6.457 4.84598 6.145 4.84598 5.77C4.84598 5.398 5.12298 5.082 5.49098 5.043H8.23298ZM12.694 9.273C12.967 9.242 13.237 9.371 13.385 9.609C13.53 9.848 13.53 10.152 13.385 10.391C13.237 10.629 12.967 10.758 12.694 10.727H5.48298C5.11598 10.688 4.83798 10.375 4.83798 10C4.83798 9.625 5.11598 9.312 5.48298 9.273H12.694ZM12.694 13.512C13.088 13.512 13.405 13.836 13.405 14.234C13.405 14.633 13.088 14.957 12.694 14.957H5.48298C5.08798 14.957 4.76798 14.633 4.76798 14.234C4.76798 13.836 5.08798 13.512 5.48298 13.512H12.694ZM12.952 0C16.167 0 18.092 1.953 18.1 5.211V14.789C18.1 18.047 16.186 20 12.963 20H10.104C9.74098 19.961 9.46298 19.645 9.46298 19.273C9.46298 18.898 9.74098 18.586 10.104 18.543H12.952C15.409 18.543 16.647 17.281 16.647 14.789V5.211C16.647 2.719 15.409 1.457 12.952 1.457H5.23698C2.78398 1.457 1.53798 2.719 1.53798 5.211V14.789C1.53798 17.281 2.78398 18.543 5.23698 18.543C5.60398 18.586 5.88098 18.898 5.88098 19.273C5.88098 19.645 5.60398 19.961 5.23698 20C2.02598 20 0.0999756 18.047 0.0999756 14.789V5.211C0.0999756 1.941 2.02598 0 5.23698 0H12.952Z" fill="#202244"/>
</svg>
