<svg width="19" height="20" viewBox="0 0 19 20" fill="none" xmlns="http://www.w3.org/2000/svg">
<path fill-rule="evenodd" clip-rule="evenodd" d="M7.92188 18.2581H3.92188C2.62488 18.2541 1.57388 17.2071 1.56588 15.9101V7.95305C1.56588 7.51905 1.76188 7.10905 2.09388 6.83205L2.80088 6.30805C3.05888 6.03505 3.08188 5.61705 2.86288 5.31205C2.64088 5.00805 2.23388 4.90605 1.89488 5.06605L1.17588 5.60505C0.444878 6.16805 0.0158779 7.03105 -0.00012207 7.95305V15.9181C0.00387793 18.0821 1.75788 19.8361 3.92188 19.8401H7.92188C8.35488 19.8401 8.70288 19.4881 8.70288 19.0591C8.70288 18.6251 8.35488 18.2741 7.92188 18.2741V18.2581Z" fill="#202244"/>
<path fill-rule="evenodd" clip-rule="evenodd" d="M18.793 7.93425C18.781 7.02325 18.363 6.16025 17.652 5.58625L11.645 0.79725C10.324 -0.26575 8.44099 -0.26575 7.12099 0.79725L5.21899 2.18025C4.85899 2.43725 4.77699 2.93425 5.03499 3.29325C5.29299 3.64825 5.78899 3.73025 6.14799 3.47325L8.07799 2.03125C8.83599 1.40625 9.92999 1.40625 10.688 2.03125L16.695 6.82025C17.043 7.09825 17.246 7.51225 17.254 7.95325V15.9183C17.254 17.2153 16.199 18.2663 14.906 18.2663H13.121C12.938 18.2663 12.793 18.1173 12.793 17.9342V14.3442C12.793 13.1992 11.867 12.2692 10.723 12.2662H8.11299C7.56199 12.2662 7.03499 12.4843 6.64499 12.8752C6.25399 13.2662 6.03499 13.7933 6.03499 14.3442V15.7192C6.03499 16.1483 6.38699 16.5002 6.81599 16.5002C7.24999 16.5002 7.60199 16.1483 7.60199 15.7192V14.3442C7.59799 14.2072 7.64799 14.0782 7.74599 13.9803C7.83999 13.8872 7.96899 13.8322 8.10499 13.8322H10.715C10.992 13.8322 11.219 14.0592 11.219 14.3363V17.9342C11.223 18.9842 12.074 19.8323 13.121 19.8323H14.859C17.027 19.8323 18.781 18.0742 18.781 15.9102L18.793 7.93425Z" fill="#202244"/>
</svg>
