<svg width="21" height="20" viewBox="0 0 21 20" fill="none" xmlns="http://www.w3.org/2000/svg">
<path fill-rule="evenodd" clip-rule="evenodd" d="M20.0271 18.6058L16.6655 15.2468L16.5892 15.1258C16.4406 14.9728 16.2421 14.8908 16.0319 14.8908C15.8256 14.8908 15.6232 14.9728 15.4784 15.1258C12.6214 17.8048 8.22138 17.9498 5.19223 15.4648C2.16307 12.9768 1.44929 8.63277 3.52316 5.30977C5.59703 1.98777 9.81418 0.71977 13.3772 2.34477C16.9412 3.96977 18.7472 7.98377 17.5944 11.7268C17.5142 12.0008 17.5787 12.2938 17.7733 12.5008C17.9649 12.7078 18.2553 12.7938 18.5301 12.7308C18.8048 12.6688 19.0268 12.4608 19.1109 12.1918C20.4856 7.75077 18.4079 2.96977 14.222 0.940771C10.0352 -1.08523 4.99374 0.250771 2.36254 4.08577C-0.269639 7.92177 0.295516 13.1018 3.69525 16.2818C7.09009 19.4578 12.3007 19.6758 15.9517 16.7938L18.9271 19.7698C19.2331 20.0788 19.7288 20.0788 20.0388 19.7698C20.3439 19.4608 20.3439 18.9608 20.0388 18.6488L20.0271 18.6058Z" fill="#202244"/>
</svg>
